<svg xmlns="http://www.w3.org/2000/svg" viewBox="0 0 500 500" width="100%" height="100%">
  <defs>
    <linearGradient id="fav-bright" x1="0%" y1="0%" x2="100%" y2="100%">
      <stop offset="0%" stop-color="#ff4d66" />
      <stop offset="30%" stop-color="#ff0526" />
      <stop offset="70%" stop-color="#9e0015" />
      <stop offset="100%" stop-color="#42000a" />
    </linearGradient>

    <linearGradient id="fav-dark" x1="0%" y1="0%" x2="0%" y2="100%">
      <stop offset="0%" stop-color="#6e000f" />
      <stop offset="50%" stop-color="#2b0004" />
      <stop offset="100%" stop-color="#0f0002" />
    </linearGradient>
  </defs>

  <g transform="translate(250, 250) scale(1.06)">
    
    <g>
      <path d="M -115 -75 A 140 140 0 0 0 -140 0 L -115 0 A 115 115 0 0 1 -95 -60 Z" fill="url(#fav-dark)" />
      <path d="M -95 -60 A 115 115 0 0 1 0 -115 L 0 -140 A 140 140 0 0 0 -115 -75 Z" fill="url(#fav-bright)" />
      <path d="M 0 -140 A 140 140 0 0 0 115 -75 L 95 -60 A 115 115 0 0 1 0 -115 Z" fill="url(#fav-bright)" />
      <path d="M 95 -60 A 115 115 0 0 1 115 0 L 140 0 A 140 140 0 0 0 115 -75 Z" fill="url(#fav-dark)" />
      <path d="M 140 0 A 140 140 0 0 0 115 75 L 95 60 A 115 115 0 0 1 115 0 Z" fill="url(#fav-bright)" />
      <path d="M 95 60 A 115 115 0 0 1 0 115 L 0 140 A 140 140 0 0 0 115 75 Z" fill="url(#fav-dark)" />
      <path d="M 0 140 A 140 140 0 0 0 -115 75 L -95 60 A 115 115 0 0 1 0 115 Z" fill="url(#fav-dark)" />
      <path d="M -95 60 A 115 115 0 0 1 -115 0 L -140 0 A 140 140 0 0 0 -115 75 Z" fill="url(#fav-bright)" />
    </g>

    <g>
      <path d="M 0 0 L -70 -70 L -55 -90 Z" fill="url(#fav-bright)" />
      <path d="M 0 0 L -70 -70 L -90 -55 Z" fill="url(#fav-dark)" />
      <path d="M 0 0 L 70 -70 L 90 -55 Z" fill="url(#fav-bright)" />
      <path d="M 0 0 L 70 -70 L 55 -90 Z" fill="url(#fav-dark)" />
      <path d="M 0 0 L 70 70 L 55 90 Z" fill="url(#fav-bright)" />
      <path d="M 0 0 L 70 70 L 90 55 Z" fill="url(#fav-dark)" />
      <path d="M 0 0 L -70 70 L -90 55 Z" fill="url(#fav-bright)" />
      <path d="M 0 0 L -70 70 L -55 90 Z" fill="url(#fav-dark)" />
    </g>

    <g>
      <path d="M 0 -220 L -25 -110 L 0 -130 Z" fill="url(#fav-bright)" />
      <path d="M 0 -220 L 25 -110 L 0 -130 Z" fill="url(#fav-dark)" />
      <path d="M 0 240 L -25 110 L 0 130 Z" fill="url(#fav-bright)" />
      <path d="M 0 240 L 25 110 L 0 130 Z" fill="url(#fav-dark)" />
      <path d="M -210 0 L -110 -22 L -125 0 Z" fill="url(#fav-bright)" />
      <path d="M -210 0 L -110 22 L -125 0 Z" fill="url(#fav-dark)" />
      <path d="M 210 0 L 110 -22 L 125 0 Z" fill="url(#fav-bright)" />
      <path d="M 210 0 L 110 22 L 125 0 Z" fill="url(#fav-dark)" />
    </g>

    <g>
      <path d="M -5 -95 C 15 -95 35 -85 55 -70 L 35 -60 C 25 -65 10 -70 -5 -70 Z" fill="url(#fav-bright)" />
      <path d="M -5 -95 C -20 -95 -35 -85 -45 -70 L -25 -65 C -15 -70 -5 -70 -5 -70 Z" fill="url(#fav-dark)" />
      <path d="M 55 -70 L 72 -63 L 35 -60 Z" fill="url(#fav-bright)" />
      <path d="M -5 -70 L -115 -20 L -60 -10 Z" fill="url(#fav-dark)" />
      <path d="M -5 -40 L -145 0 L -55 15 Z" fill="url(#fav-dark)" />
      <path d="M -5 -10 L -100 35 L -45 35 Z" fill="url(#fav-dark)" />
      <path d="M -5 -70 L 115 -20 L 60 -10 Z" fill="url(#fav-bright)" />
      <path d="M -5 -40 L 145 0 L 55 15 Z" fill="url(#fav-bright)" />
      <path d="M -5 -10 L 100 35 L 45 35 Z" fill="url(#fav-bright)" />
      <path d="M -5 -70 L -5 50 L -55 15 Z" fill="url(#fav-dark)" />
      <path d="M -5 -70 L 50 15 L -5 50 Z" fill="url(#fav-bright)" />
      <path d="M -5 -70 L 0 -40 L -5 50 Z" fill="#ff4d6d" opacity="0.3" />
      <path d="M -5 50 L -25 110 L -5 80 Z" fill="url(#fav-dark)" />
      <path d="M -5 50 L 5 80 L 15 110 Z" fill="url(#fav-bright)" />
      <g opacity="0.9">
        <path d="M -5 50 L -10 135 L -5 85 Z" fill="url(#fav-dark)" />
        <path d="M -5 50 L -5 85 L 0 135 Z" fill="url(#fav-bright)" />
      </g>
    </g>
  </g>
</svg>